<?xml version="1.0" encoding="utf-8"?>
<!-- Generator: Adobe Illustrator 19.0.0, SVG Export Plug-In . SVG Version: 6.00 Build 0)  -->
<svg version="1.1" xmlns="http://www.w3.org/2000/svg" xmlns:xlink="http://www.w3.org/1999/xlink" x="0px" y="0px"
	 viewBox="0 0 1122 1122" style="enable-background:new 0 0 1122 1122;" xml:space="preserve">
<style type="text/css">
	.st0{fill:#516784;}
	.st1{fill:#D8D9DA;}
	.st2{fill:#3E5770;}
	.st3{fill:#B1B2B3;}
	.st4{fill:#65829E;}
</style>
<g id="BG">
</g>
<g id="Object">
	<g>
		<g>
			<path class="st0" d="M860.8,551.4c-0.3-11.5-1.4-22.9-3.1-34.1l-59.4-9.8l-20.1-56.2l39.6-45.4c-12-20-26.3-38.3-42.4-54.9
				l-53.8,27l-49.4-33.6l5.3-60c-20.5-8.6-42.1-15.1-64.6-19l-28,53.4l-59.7,1.4l-30.7-52c-22.9,5.2-44.9,13-65.5,23.1l8.8,59.6
				l-47.4,36.3l-55.3-23.9c-15.2,17.4-28.4,36.5-39.3,57.2l42.1,43L321,520.9l-58.8,13.2c-1.1,11.8-1.5,23.9-1.1,36.2
				c0.4,11.2,1.4,22.2,2.9,33.1l59.4,10l19.9,56.2l-39.8,45.3c12,20,26.3,38.6,42.4,55.1l53.9-26.9l49.3,33.7l-5.6,60.1
				c21.1,8.9,43.4,15.7,66.6,19.6L538,803l59.7-1.7l30.8,51.9c22.9-5.3,44.8-13.2,65.4-23.4l-9-59.6l47.3-36.5l55.3,23.7
				c15.2-17.5,28.4-36.7,39.2-57.3l-42.3-42.8l16.7-57.4l58.8-13.3C860.9,575,861.2,563.2,860.8,551.4z M649.7,661.8
				c-55.7,48.9-140.7,43.7-189.8-12.3c-48.9-55.9-43.5-140.8,12.4-189.7C528,410.7,613,416.2,661.9,472
				C711.2,527.9,705.5,612.9,649.7,661.8z"/>
			<path class="st1" d="M708.8,431c-71.7-81.6-196.2-89.8-277.9-18.1c-81.6,71.8-89.7,196.1-17.8,277.8
				c71.7,81.6,196.1,89.6,277.7,18C772.5,637,780.5,512.6,708.8,431z M678.1,694.2c-73.6,64.7-185.8,57.4-250.5-16.2
				c-64.8-73.7-57.5-185.9,16-250.6c73.7-64.7,186-57.3,250.6,16.3C759,517.3,751.8,629.6,678.1,694.2z"/>
			<path class="st2" d="M447.2,775.5l2,1.3l-4.6,59.5l-1,0.5c21.1,8.9,43.4,15.7,66.6,19.6l-0.5-1L538,803l59.7-1.7l31.4,50.9
				l-0.6,1c22.9-5.3,44.8-13.2,65.4-23.4l-1-0.4l-8-59.2l47.3-36.5l55.3,22.7l0.1,1c15.2-17.5,28.4-36.7,39.2-57.3l-1,0.3
				l-41.3-43.1l16.7-57.4l58-14.1l0.8,0.7c0.9-11.6,1.3-23.4,0.9-35.3c-0.3-11.5-1.4-22.9-3.1-34.1l-0.6,0.9l-16.7-3
				C728.9,675.9,571.8,745.6,447.2,775.5z"/>
			<path class="st3" d="M690.9,708.7c28-24.6,47.4-55.4,57.8-88.5c-10.9,10-22,19.4-33.3,28.2c-9.5,16.8-21.9,32.3-37.3,45.8
				c-33.5,29.4-75,43.9-116.4,44.1c-13.5,5.6-26.8,10.7-40,15.4C580,765.5,642.8,750.9,690.9,708.7z"/>
		</g>
		<path class="st4" d="M440,338l-5.7-48.3c0,0,28.6-15.1,50.4-18.7C484.7,271,449.4,284,440,338z"/>
	</g>
</g>
</svg>
